<?xml version="1.0" encoding="UTF-8"?>
<svg id="_图层_1" data-name="图层 1" xmlns="http://www.w3.org/2000/svg" version="1.1" viewBox="0 0 595.28 841.89">
  <defs>
    <style>
      .cls-1 {
        fill: #801d25;
        stroke-width: 0px;
      }
    </style>
  </defs>
  <g>
    <path class="cls-1" d="M-1341.34,987c.02-99.18.04-198.35.06-297.53,0-5.49-.04-10.98-.06-16.47.67,0,1.33,0,2,0,.12,1.82.36,3.63.36,5.45.02,101.2.02,202.4,0,303.6,0,1.65-.24,3.3-.36,4.95h-2Z"/>
    <path class="cls-1" d="M-1076.03,820.78c-1.3-3.99.06-5.18,3.67-5.14,14.8.17,29.61.1,44.42.32,1.37.02,2.72,1.46,4.08,2.24-1.19.98-2.26,2.61-3.57,2.84-11.46,2.06-13.01,3.6-13.29,15.19-.28,11.48-.37,22.97-.4,34.46-.02,6.57.64,7.31,7.04,7.34,22.3.09,44.61-.06,66.91.09,5.09.04,6.68-2.04,6.57-6.9-.23-10.82-.03-21.66-.11-32.48-.02-2.65-.47-5.3-.72-7.94-.52-5.44-3.51-8.4-8.94-8.97-1.49-.16-3.09-.19-4.39-.8-1.2-.56-2.07-1.83-3.09-2.78,1.14-.81,2.28-2.32,3.43-2.33,11.15-.1,22.3.08,33.44.12,3.83.01,7.67-.34,11.47-.11,1.24.07,2.41,1.46,3.61,2.24-1.01.97-1.93,2.66-3.04,2.79-11.36,1.36-14.31,1.86-14.47,17.3-.32,31.15-.1,62.3-.09,93.46,0,1.16.07,2.33.18,3.49,1.05,10.63,2.8,12.43,13.31,13.73.66.08,1.52-.14,1.95.21,1,.8,1.79,1.85,2.66,2.8-1.07.93-2.13,2.67-3.21,2.68-15.46.18-30.92.17-46.37.02-.97,0-2.62-1.55-2.69-2.47-.07-.98,1.18-2.71,2.18-3,14.34-4.23,14.5-4.18,14.76-19.16.22-12.49,0-24.99.08-37.48.03-3.69-1.4-5.66-5.23-5.66-23.31.01-46.61.03-69.92-.02-3.58,0-5.3,1.74-5.26,5.12.15,15.48.16,30.97.72,46.44.23,6.45,2.84,8.61,9.24,9.85,1.79.35,3.73.23,5.39.86,1.51.58,3.77,1.78,3.89,2.9.36,3.34-2.47,2.73-4.58,2.66-5.98-.18-11.97-.58-17.95-.55-8.48.05-16.96.52-25.44.51-1.57,0-4.11-1.04-4.53-2.2-1.07-3.01,1.53-3.2,3.77-3.64,9.99-1.93,11.99-4.12,12.03-14.39.11-32.31.04-64.63.03-96.94,0-1.16-.04-2.33-.16-3.49-.91-9.28-3.41-11.78-12.69-12.75-1.48-.15-2.96-.28-4.71-.45Z"/>
    <path class="cls-1" d="M-214.3,957.37c-42.86-.18-73.83-30.12-73.69-71.27.14-41.99,32.05-73.3,74.6-73.19,42.74.11,72.22,29.38,72.2,71.68-.02,41.59-31.53,72.96-73.1,72.78ZM-162.16,889.57c-.43-15-2.99-30.3-10.97-44.25-10.3-18.01-25.99-26.92-46.61-25.66-21.96,1.35-36.69,13.37-43.09,34.15-2.88,9.35-4.04,19.62-3.88,29.44.3,19.39,5.56,37.49,19.11,52.22,20.22,21.99,56.33,20.31,73.81-3.52,9.04-12.32,11.46-26.67,11.64-42.4Z"/>
    <path class="cls-1" d="M-336.97,818.43c1.05,9.23,2.17,18.44,3.05,27.68.1,1.1-1.13,2.33-1.75,3.49-1.31-.73-2.94-1.18-3.83-2.25-.89-1.07-.99-2.78-1.52-4.18-4.17-10.98-11.61-18.76-23.12-21.56-21.14-5.14-41.14-3.02-58.01,12.08-10.79,9.66-15.72,22.52-17.21,36.68-1.93,18.32.73,35.9,9.85,52.12,11.22,19.93,34.24,30.97,58.1,28.13,16.84-2,19-4.37,19.01-21.38,0-4.99-.21-9.98-.49-14.96-.35-6.15-2.29-8.32-8.29-9.33-3.77-.63-7.63-.79-11.35-1.61-1.38-.31-2.48-1.9-3.7-2.9,1.3-.81,2.59-2.3,3.9-2.31,15.46-.17,30.93-.16,46.39-.03,1.27.01,2.53,1.28,3.79,1.96-1.09,1.13-1.99,2.93-3.29,3.28-8.02,2.21-9.44,3.66-9.68,12-.19,6.66-.57,13.37.07,19.97.47,4.8,2.47,9.44,3.84,14.36-24.63,6.74-50.44,11.28-76.91,3.93-31.94-8.87-52.72-34.78-52.77-65.81-.06-34.69,19.84-61.45,52.77-70.74,19.98-5.64,40.08-5.3,60.22-.78,3.55.8,7.15,1.42,10.91,2.16Z"/>
    <path class="cls-1" d="M-597.7,953.87c-5.72.26-12.03.72-18.34.7-1.46,0-2.91-1.67-4.37-2.57,1.38-.99,2.75-2.81,4.13-2.82,8.69-.05,13.67-4.38,16.69-12.34,13.26-34.96,26.77-69.82,40.18-104.72.36-.93.97-1.9.92-2.83-.44-8.27,6.62-11.05,11.37-15.36,2.9-2.63,3.78.26,4.55,2.62,3.58,10.89,7.17,21.78,10.85,32.63,9.08,26.74,18.2,53.46,27.35,80.18,1.07,3.14,2.33,6.22,3.6,9.29,2.67,6.46,7.42,9.99,14.52,10.32,2.16.1,5.33-.52,5.1,3.07-.25,4.11-3.5,2.35-5.76,2.36-13.47.08-26.93.15-40.4.24-2.25.02-5.28.89-5.15-2.63.04-1.06,2.86-2.08,4.48-2.98.53-.29,1.31-.1,1.97-.18,7.55-.92,8.65-2.4,6.41-9.7-3.47-11.27-7.25-22.45-10.73-33.72-1.05-3.4-3.13-4.98-6.5-5-11.65-.04-23.3-.06-34.95,0-3.13.02-5.22,1.51-6.22,4.71-3.71,11.89-7.71,23.68-11.28,35.61-1.74,5.8-.32,7.45,5.77,8.1,1.49.16,3.15-.2,4.44.37,1.22.54,2.06,1.97,3.06,3-1.22.81-2.43,2.3-3.65,2.3-5.81,0-11.62-.39-18.04-.68ZM-573.14,891.89c12.48,0,23.41.15,34.33-.09,3.52-.08,2.95-2.73,2.14-5.17-3.72-11.17-7.37-22.37-11.08-33.54-1.55-4.67-3.22-9.31-4.84-13.96-.45-.02-.9-.03-1.35-.05-6.24,17.16-12.47,34.32-19.19,52.81Z"/>
    <path class="cls-1" d="M-1170.92,957.38c-19.39-.23-39.56-4.71-56.14-19.5-38.11-33.99-26.54-97.77,21.22-117.62,21.06-8.75,42.74-8.77,64.72-4.8,3.43.62,6.79,1.85,10.24,2.13,5.56.46,7.33,3.16,7.4,8.61.1,6.96,1.35,13.9,1.81,20.87.08,1.16-1.39,2.41-2.15,3.62-1.22-.84-3.24-1.45-3.53-2.54-5.35-19.71-19.37-27.71-38.51-28.52-22.06-.93-40.76,5.89-53.08,25.28-17.9,28.15-10.86,74.06,14.24,93.4,14.52,11.19,31.13,14.78,49,11.34,13.98-2.69,23.82-11.25,30.23-23.84.68-1.33,1.02-3.01,2.04-3.94.89-.81,2.61-1.21,3.8-.97.69.14,1.72,2.09,1.47,2.88-2.58,8.21-5.3,16.38-8.23,24.47-.41,1.14-1.98,2.19-3.24,2.63-12.67,4.43-25.76,6.46-41.29,6.48Z"/>
    <path class="cls-1" d="M-656.99,819.09c1.03,9.66,2.09,18.91,2.91,28.18.09,1.06-1.27,3.2-1.85,3.17-1.32-.08-2.62-1.15-3.84-1.95-.32-.21-.31-.92-.45-1.4-4.33-15.19-14.48-24.07-29.89-26.5-21.2-3.35-40.48.59-55.76,16.92-8.61,9.2-12.91,20.54-14.34,32.86-2.5,21.51.12,41.94,14.25,59.49,15.78,19.59,46.86,26.87,68.36,16.12,9.5-4.75,15.95-12.34,20.43-21.78,1-2.11,1.93-4.99,4.82-3.32,1.13.65.99,3.56,1.38,5.46.06.3-.12.65-.21.97-7.87,26.21-5.09,23.66-31.85,28.55-18.09,3.3-36.21,2.11-53.63-4.33-28.04-10.37-44.38-33.65-45.44-64.19-.98-28.32,15.33-54.26,41.62-66.12,21.67-9.78,44.19-9.92,67.04-5.72,5.39.99,10.72,2.33,16.43,3.59Z"/>
    <path class="cls-1" d="M-852.91,815.79c7.82,0,15.64-.12,23.45.12,1.29.04,2.53,1.63,3.79,2.51-1.08.88-2.04,2.1-3.28,2.57-1.51.57-3.27.45-4.91.72-7.08,1.15-9.4,3.55-9.85,10.83-.39,6.31-.56,12.63-.58,18.95-.06,24.64-.03,49.29-.02,73.93,0,2.5-.04,5,.16,7.49,1.09,13.46,1.77,14.08,15.12,16.25,1.24.2,2.22,2.02,3.31,3.09-1.33.83-2.66,2.37-4,2.39-15.45.16-30.9.16-46.35-.02-1.3-.01-2.58-1.59-3.86-2.44,1.13-1.05,2.19-2.18,3.42-3.1.45-.33,1.3-.11,1.96-.19,10.04-1.28,12.8-3.95,12.85-14.15.16-33.13.17-66.27-.02-99.41-.06-10.47-2.81-12.98-13.29-14.12-.17-.02-.33-.03-.5-.06-1.96-.3-5.05.48-4.21-2.99.25-1.05,2.82-2.13,4.36-2.18,7.48-.22,14.97-.1,22.45-.1,0-.03,0-.06,0-.08Z"/>
    <path class="cls-1" d="M-1176.34,703.92h22.46c-.25.83-.32,1.38-.44,1.39-6.06.62-7.29,4.63-7.09,9.82.14,3.66.15,7.33,0,10.99-.14,3.08,1.27,4.13,4.15,4.11,8.82-.06,17.64-.09,26.46.02,3.07.04,4.08-1.27,3.97-4.19-.15-4.16-.08-8.33-.02-12.49.06-4.26-.8-7.7-6.09-7.8-.46,0-.91-.71-2.29-1.84h23.17c-.1.69-.11,1.26-.19,1.26-6.66.66-7.36,5.06-7.24,10.61.26,11.82.18,23.65.03,35.47-.06,4.91.35,9.11,6.59,9.54.45.03.85.72,1.99,1.75h-23.21c.09-.67.1-1.22.19-1.24,6.72-1.09,7.4-5.8,7.07-11.36-.24-4.15-.11-8.32-.05-12.49.04-2.48-.93-3.58-3.54-3.56-8.99.09-17.97.12-26.96-.01-3.15-.05-4.1,1.41-4.03,4.24.08,3.33-.02,6.66.02,9.99.07,6.13-1.07,13.04,9.28,12.88-.33.43-.65.85-.98,1.28h-23.18c1.5-1,2.17-1.8,2.94-1.91,3.66-.49,4.62-3.14,4.64-6.09.09-13.99.07-27.97-.05-41.96-.03-3.65-1.35-6.56-5.83-6.5-.65,0-1.3-.64-1.96-.99.05-.31.11-.63.16-.94Z"/>
    <path class="cls-1" d="M-594.79,762.53h-23.56c-.39-.4-.78-.8-1.16-1.2.77-.2,1.54-.53,2.32-.58,5.59-.31,6.52-3.89,6.47-8.6-.13-12.31-.09-24.63-.02-36.94.03-4.42-.07-8.57-6.06-8.76-.24,0-.54-.39-.68-.66-.13-.27-.08-.62-.16-1.54,10.68-.62,21.31-2.27,31.9.56,5.81,1.55,9.54,5.32,10.47,11.38.91,5.94-1.28,10.79-5.89,14.52-1.52,1.23-3.26,2.2-4.83,3.25,3.65,10.59,15.39,24.64,23.72,28.53-4.33,2.64-11.67,1.63-16.22-3.44-4.62-5.15-8.38-11.1-12.3-16.85-2.22-3.27-4.32-6.67-8.85-5.97-1.39.22-3.5,2-3.6,3.2-.38,4.79-.07,9.63-.06,14.46.01,3.8,1.34,6.42,5.59,6.74.63.05,1.2.76,2.92,1.9ZM-603.42,733.23c2.73,0,4.7-.04,6.66,0,5.12.13,9.73-.99,11.96-6.16,2.38-5.52,2.25-11.11-1.61-15.96-3.52-4.43-8.6-5.43-13.91-4.64-1.16.17-2.92,1.96-2.96,3.05-.26,7.59-.14,15.2-.14,23.7Z"/>
    <path class="cls-1" d="M-229.42,764.09c-18.3-.02-31.52-12.63-31.58-30.11-.07-18.39,13.67-31.84,32.42-31.76,18.15.08,30.64,12.73,30.56,30.96-.08,17.99-13.22,30.93-31.4,30.91ZM-206.51,735.71c-.67-7.88-2.09-15.32-6.67-21.81-9.3-13.17-29.51-11.43-35.89,3.36-5.4,12.53-3.71,24.8,4.19,35.85,5.01,7.01,12.48,9.23,20.77,7.8,7.71-1.33,12.71-6.29,15.09-13.62,1.21-3.74,1.71-7.72,2.52-11.59Z"/>
    <path class="cls-1" d="M-849.42,764.18c-14.03-16.05-28.06-32.11-42.09-48.16-.39.09-.78.17-1.18.26,0,2.72-.03,5.44,0,8.16.13,9.49.28,18.97.44,28.46.08,4.48,1.5,7.79,6.78,7.83.6,0,1.19.68,3.03,1.81h-21.74c.21-.7.27-1.24.39-1.25,7.53-.78,7.18-6.4,7.19-11.75.03-10.99.02-21.99.01-32.98,0-8.12-.1-8.25-7.93-10.72-.64-.2-1.32-.29-1.98-.44.33-.59.67-1.18,1-1.77,4.5,0,9.02-.19,13.5.14,1.06.08,2.03,1.9,2.95,2.99,11.83,13.9,23.65,27.82,36.03,42.39.75-1.72,1.18-2.25,1.18-2.77-.17-10.81-.46-21.63-.59-32.44-.06-4.83-1.56-8.11-7.07-8.12-.47,0-.94-.64-2.53-1.81h22.44c-7.99,4.96-8.18,4.96-8.29,13.92-.17,13.47-.03,26.95-.05,40.43,0,1.76-.15,3.53-.22,5.29-.43.18-.87.35-1.3.53Z"/>
    <path class="cls-1" d="M-1044.28,750.4c-1.15,3.7-2.17,7.44-3.53,11.06-.28.74-1.79,1.44-2.74,1.45-13.81.08-27.62.04-41.43-.02-.35,0-.71-.53-1.05-.81.22-.4.3-.84.52-.93q8.05-3.16,8.06-12.26c0-10.16.04-20.31-.01-30.47-.03-5.71,2-12.54-8.04-13.28.37-.39.74-.78,1.11-1.17h40.07c.34,3.67.71,7.61,1.07,11.55-.4.45-.8.91-1.2,1.36-4.47-14.54-15.47-9.54-25.02-10.44v23.77c4.04,0,7.99-.3,11.87.07,5.55.53,5.18-4.38,6.65-7.65.38.17.76.34,1.13.5v17.73c-3.47-11.44-12.45-5.88-19.73-7.2,0,7.35-.33,14.13.22,20.84.14,1.75,2.9,4.48,4.67,4.67,5.39.58,10.97.7,16.29-.18,2.42-.4,4.46-3.49,6.54-5.5,1.17-1.13,2.07-2.55,3.1-3.84.48.24.96.49,1.44.73Z"/>
    <path class="cls-1" d="M-947.9,704.59h20.13c-.15.68-.2,1.26-.3,1.26-7.82.72-7.44,6.55-7.6,12.09-.27,9.47.09,19.02-1.04,28.39-1.58,13.11-10.89,19.43-25.53,18.59-12.79-.74-19.94-8.04-20.34-21.21-.25-8.32-.04-16.65-.1-24.98-.04-5.9,1.04-12.5-7.74-14.04h22.85c-.44.61-.75,1.44-1.08,1.45-6.73.2-6.96,4.89-6.83,9.81.25,9.81,0,19.66.95,29.41.98,10.07,7.04,15.27,16.28,15.55,9.56.29,16.51-4.54,17.51-14.69,1.14-11.49.44-23.19.11-34.79-.05-1.58-2.53-3.22-4.11-4.56-.86-.73-2.21-.89-3.33-1.31.06-.33.12-.65.18-.98Z"/>
    <path class="cls-1" d="M-654.17,723.17v18.11c-1.03-.65-1.84-.9-2.2-1.45-1.2-1.85-1.96-5.19-3.38-5.47-4.32-.85-8.88-.65-13.34-.53-.56.02-1.5,2-1.54,3.1-.15,5.16-.12,10.32-.02,15.48.08,4.29,2.19,6.86,6.66,7.1,2.82.15,5.64.3,8.46.41,6.15.22,11.07-1.7,13.76-7.74.45-1,1.5-1.73,2.28-2.59.45.24.9.48,1.36.72-1.21,4.14-2.43,8.29-3.57,12.19h-44.88c-.07-.27-.13-.54-.2-.81.74-.44,1.49-1.28,2.23-1.27,5.22.07,6.4-3.15,6.39-7.49-.02-13.32-.14-26.64.06-39.96.07-4.89-2.46-7.08-7.07-7.9.09-.42.18-.84.26-1.26,1.4-.19,2.81-.53,4.21-.53,10.8-.01,21.6-.05,32.4.2,1.18.03,3.05,1.6,3.34,2.76.72,2.94.72,6.06,1.12,10.29-1.58-1.23-2.53-1.59-2.65-2.14-1.53-6.49-6.24-7.89-12.05-8.03-12.17-.29-12.17-.37-12.17,11.9,0,.17,0,.33,0,.5,0,12.31,1.56,13.63,13.98,11.14,1.42-.29,2.74-1.98,3.72-3.31.77-1.04.94-2.53,1.38-3.82.48.14.96.28,1.45.42Z"/>
    <path class="cls-1" d="M-164.71,731.21c3.07,0,5.87-.11,8.66.02,5.08.24,9.84.13,10.45-6.65.02-.26.79-.46,1.79-1v18.37c-.58-.2-1.9-.38-1.93-.7-.7-6.8-5.77-6.71-10.66-6.85-2.78-.08-5.56-.01-8.72-.01,0,7.63-.27,14.44.19,21.21.11,1.62,2.48,3.3,4.12,4.53,1.07.8,2.72.82,4.05,2.19h-23.29c.1-.46.12-1.02.22-1.03,6.54-.88,7.19-5.22,7.02-10.78-.33-10.81-.06-21.63-.11-32.44-.03-5.56,1.89-12.18-6.72-14.09h38.99v11.66c-4.37-13-14.96-8.24-24.07-9.32v24.9Z"/>
    <path class="cls-1" d="M-719.38,707.06c-2.65-1.13-4.5-1.92-6.35-2.72.05-.29.1-.58.15-.87h18.45c-8.78,1.98-10.1,9.98-12.98,16.27-6.16,13.44-11.72,27.16-17.54,40.75-.49,1.14-1.08,2.23-1.93,3.98-.97-1.4-1.66-2.09-1.99-2.92-6.45-16.21-12.63-32.53-19.43-48.6-1.55-3.66-5.17-6.45-7.77-9.55h19.73c.08.33.15.65.23.98-1.86.74-3.72,1.47-6.35,2.51,5.66,14.16,11.23,28.1,16.8,42.05l1.41.06c5.82-13.9,11.64-27.81,17.56-41.95Z"/>
    <path class="cls-1" d="M-349.65,707.26c.78,2.02,1.31,3.76,2.09,5.36,3.34,6.83,6.76,13.63,10.76,21.66,5.15-9.52,9.73-17.99,14.45-26.71-2.34-1.08-4.11-1.9-5.87-2.71.08-.32.16-.64.24-.96h17.53c-13.07,6.29-15.7,20.05-22.33,30.63-4.18,6.67-2.51,14.9-1.26,22.45.21,1.26,2.29,2.43,3.74,3.2,1.28.68,2.9.74,4.36,1.08-.08.41-.15.82-.23,1.24h-24.53c.41-.72.55-1.32.85-1.43,7.71-2.7,7.45-2.71,7.81-11.1.31-7.22-1.06-13.79-4.85-19.99-2.33-3.81-4.11-7.97-6.19-11.94-2.86-5.43-4.53-11.96-12.55-12.74.19-.39.38-.79.56-1.18h20.55l.21.92c-1.57.65-3.13,1.3-5.36,2.23Z"/>
    <path class="cls-1" d="M-512.53,715.09c-.83-1.65-1.59-3.35-2.51-4.95-2.81-4.9-9.09-6.96-14.85-4.92-4.01,1.42-7.22,6.22-5.71,10.38,1.23,3.37,3.77,6.57,6.49,8.99,3.31,2.95,7.88,4.53,11.05,7.59,3.1,2.99,6.1,6.78,7.41,10.79,2.91,8.91-2.52,17.84-11.69,19.76-4.12.86-8.6.79-12.8.25-8.53-1.1-11.63-6.58-9.1-16.83,1.06,2.21,1.44,3.8,2.4,4.85,2.84,3.09,5.44,6.87,9,8.73,5.49,2.87,11.85.62,14.55-3.82,2.93-4.82,1.68-11.78-3.19-15.76-3.08-2.51-6.61-4.45-9.84-6.8-2.27-1.65-4.58-3.34-6.51-5.37-4.38-4.63-5.55-10.22-3.44-16.18,2.17-6.13,7.13-8.97,13.31-9.77,2.28-.3,4.65-.27,6.95-.1,9.28.7,10.97,2.99,8.48,13.17Z"/>
    <path class="cls-1" d="M-383.53,715.85c-.44-1-1.14-1.96-1.28-3-.54-3.88-3.25-5.36-6.57-5.71-3.79-.39-7.66-.52-11.45-.2-1.1.09-2.89,2.11-2.9,3.27-.19,14.65,0,29.3-.16,43.95-.07,6.04,4.64,6.23,8.43,8.32h-24.52c.24-.64.29-1.13.46-1.18,8.31-2.41,8.4-2.45,8.45-11.08.06-12.82-.11-25.64.1-38.46.07-3.97-1.23-5.02-5.14-5.13-7.77-.22-14.89.34-18.49,9.37l-1.29-1.24c1.07-4.49,2.13-8.97,2.99-12.56,4.71.6,9.08,1.52,13.47,1.63,10.14.24,20.3.19,30.45,0,3.16-.06,6.31-.89,9.89-1.43-.38,3.98-.81,8.59-1.25,13.19-.4.08-.8.16-1.19.25Z"/>
    <path class="cls-1" d="M-1251.4,715.09c1.23-4.94,2.33-9.36,3.17-12.72,18.06,2.17,35.72,1.67,53.9.33-.37,3.4-.87,8.09-1.37,12.72-.74,0-1.02.03-1.03,0-2.63-10.58-11.23-8.87-18.78-8.84-1.17,0-3.34,2.21-3.36,3.42-.24,14.66,0,29.33-.24,43.99-.1,6.17,4.64,6.21,8.42,8.37h-25.3c1.29-.82,1.97-1.61,2.66-1.63,5.5-.13,6.9-3.35,6.86-8.22-.11-13.83-.14-27.66.04-41.49.05-3.5-1.08-4.75-4.53-4.65-7.19.22-14.62-.32-18.09,8.15-.13.32-1.11.3-2.35.59Z"/>
    <path class="cls-1" d="M-483.67,703.73h22.43c.46.5.93,1.01,1.39,1.51-.91.22-1.82.64-2.72.61-5.06-.15-6.18,3.15-6.21,7.17-.07,13.49.15,26.99-.1,40.47-.11,5.74,3.78,6.94,8.51,7.76-.23.39-.46.78-.69,1.17h-22.81c.27-.61.42-1.35.63-1.36,6.89-.57,7.31-5.38,7.26-10.72-.1-10.16.22-20.33-.12-30.48-.21-6.07,3.11-14.39-9.21-14.51.55-.54,1.09-1.08,1.64-1.63Z"/>
    <path class="cls-1" d="M-815.39,703.28h22.4c-.05.61,0,1.15-.11,1.18-7.95,2.58-7.17,1.73-7.43,11.48-.3,11.31-.09,22.64-.06,33.96.02,8.18.22,8.43,7.62,11.67h-22.42c-.06-.22-.13-.44-.19-.65.76-.33,1.5-.88,2.28-.95,3.71-.34,5.32-2.61,5.34-6.01.08-14.15-.04-28.3.1-42.44.05-5.41-4.07-6-7.94-7.09.14-.38.28-.77.42-1.15Z"/>
  </g>
  <g>
    <path class="cls-1" d="M-1638.12,703.6c2-.22,3.92-.45,5.83-.64,4.54-.44,9.08-.89,13.62-1.27,4.37-.37,8.74-.69,13.12-.97,5.82-.37,11.65-.7,17.47-1.01,4.32-.22,8.63-.45,12.95-.54,12.41-.27,24.83-.61,37.24-.66,11.25-.05,22.51.14,33.76.41,9.32.23,18.63.68,27.94,1.12,6.81.33,13.62.75,20.42,1.23,6.85.48,13.68,1.09,20.52,1.65,2.45.2,4.89.44,7.42.67,0,.27,0,.5,0,.73,0,49.37.02,98.74-.03,148.1,0,2.66-.51,5.32-.87,7.97-.93,6.94-2.39,13.77-4.35,20.49-4.28,14.66-10.92,28.11-20.45,40.09-7.71,9.7-16.84,17.85-27.23,24.58-12.18,7.9-25.37,13.53-39.38,17.23-4.04,1.07-8.14,1.92-12.24,2.73-1.09.21-2.31-.04-3.44-.25-15.68-2.86-30.36-8.44-44.04-16.59-25.5-15.19-42.96-36.87-52.1-65.17-2.47-7.65-4.16-15.48-5.31-23.43-.63-4.37-.88-8.75-.88-13.17.03-47.42.02-94.83.02-142.25,0-.33,0-.65,0-1.07ZM-1509.18,886.76c.53-2.32,1.71-4.16,2.87-6.02.51-.82.86-1.79,1.06-2.74.29-1.39.38-2.82.58-4.22.05-.36.1-.77.3-1.05,1.21-1.74,2.77-3.1,4.71-3.99.26-.12.56-.14.83-.21.09,1.19.1,2.3.27,3.37.53,3.34,1.11,6.67,1.67,9.94,1.56-.12,3.23-.26,4.91-.38,1.33-.09,2.25.56,2.9,1.67.71,1.2.66,1.43-.57,2.02-1.77.85-3.39,1.92-4.75,3.35-2.07,2.18-3.46,4.78-4.5,7.57-.05.14-.08.3-.12.45.05.03.09.07.14.1,3-2.56,5.98-5.14,9-7.68,1.35-1.13,2.2-2.52,2.68-4.19.2-.69.41-1.39.64-2.07.13-.39.07-.62-.29-.88-1.26-.91-2.5-1.85-3.72-2.82-1.61-1.28-2.81-2.88-3.48-4.85-.11-.33-.17-.69-.26-1.03.07-.06.15-.12.22-.18.47.32.98.59,1.39.98,1.89,1.77,3.74,3.58,5.62,5.36.34.33.73.6,1.01.82.99-2.08,1.96-4.1,2.97-6.21-.02-.02-.15-.16-.31-.28-3.02-2.23-4.77-5.38-6.32-8.67-.17-.36-.14-.81-.2-1.21.38.18.84.28,1.13.55,1.37,1.29,2.73,2.6,4.04,3.96,1.32,1.37,2.57,2.82,3.85,4.23.42-.18.81-.38,1.22-.52,1.22-.42,1.97-.08,2.34,1.14.22.71.28,1.46.45,2.18.09.39.13.91.39,1.13,2.05,1.67,4.15,3.28,6.25,4.92,1.49-1.38,2.52-3,3.46-4.7.28-.5.25-.81-.18-1.22-2.46-2.32-4.9-4.65-7.32-7.01-2.51-2.46-4.99-4.93-6.58-8.14-.98-1.98-2.05-3.92-3.05-5.89-.19-.38-.26-.82-.38-1.24.09-.06.18-.12.27-.17.58.53,1.23,1.01,1.74,1.61,3.25,3.77,6.47,7.57,9.71,11.34,1.86,2.16,3.74,4.3,5.63,6.44.32.36.74.64,1.19,1.02.14-.42.24-.69.31-.96.62-2.36.67-4.76.68-7.18,0-.65-.21-1.04-.71-1.41-5.51-4.19-9.06-9.86-11.96-16.01-.12-.25-.14-.55-.21-.83.36.04.6.14.78.31.6.57,1.24,1.13,1.77,1.76,3.27,3.9,6.52,7.81,9.77,11.73.1.12.14.3.21.45.07-.06.14-.12.22-.18-.06-.63-.11-1.26-.19-1.89-.67-4.93-1.37-9.85-2-14.78-.12-.91-.02-1.84-.02-2.94.22.25.37.35.43.5,3.89,9.41,5.42,19.24,5.2,29.42.46-.42.85-.83,1.3-1.17,2.38-1.79,5.08-2.91,7.89-3.81.41-.13.57-.28.53-.72-.23-2.27-.35-4.55-.69-6.8-.85-5.73-2.34-11.31-4.25-16.78-1.41-4.03-2.96-8-4.45-12-.13-.35-.21-.71-.32-1.06.05-.03.1-.05.15-.08.25.3.5.59.74.89,2.12,2.78,3.61,5.89,4.87,9.13,2.41,6.22,3.95,12.69,5.55,19.15,1.72,6.97,3.5,13.92,5.26,20.87.06.25.25.46.38.69.25-.16.6-.26.73-.48.34-.6.66-1.24.85-1.91.8-2.89.99-5.87,1.05-8.86.06-3.2.1-6.41-.02-9.61-.08-2.05-.32-4.11-.72-6.12-.96-4.86-2.95-9.33-5.48-13.57-3.59-6.02-7.2-12.03-10.79-18.05-.49-.82-.96-1.65-1.45-2.5.74-.39,1.27-.07,1.66.36.8.87,1.6,1.75,2.26,2.73,2.05,3.06,3.96,6.21,6.05,9.23,1.05,1.52,2.21,3.06,3.61,4.23,3.09,2.6,6.81,4.09,10.65,5.25.29.09.61.09,1.03.15-.17-.34-.27-.55-.38-.76-2.89-5.27-6.67-9.87-10.73-14.26-3.14-3.4-6.37-6.72-9.54-10.1-.55-.59-1.01-1.27-1.46-1.94-.16-.23-.17-.56-.25-.84.06-.03.12-.05.18-.08.48.44.97.88,1.45,1.32,3.26,2.97,6.58,5.87,10.27,8.31,1.32.87,2.65,1.72,4.22,2.07.28.06.59,0,1.06,0-.28-.29-.39-.42-.51-.54-1.86-1.8-3.72-3.6-5.58-5.41-1.76-1.71-3.66-3.31-5.24-5.17-1.97-2.31-4.02-4.52-6.21-6.62-.19-.19-.37-.38-.66-.68h1.7c-.23-.69-.42-.95-1.46-1.65-3.16-2.14-6.53-3.81-10.33-4.52-.44-.08-1.2-.04-1.15-.71.05-.64.78-.46,1.25-.56.62-.14,1.26-.2,1.84-.44.78-.33,1.14-1.03,1.03-1.76-2.09.34-4.1.05-6.03-.8-2.81-1.24-5.7-2.22-8.71-2.86-3.65-.78-7-.27-10.03,1.98-.18.13-.55.17-.76.08-1.74-.78-3.31-.41-4.74.72-1.62,1.28-2.86,2.89-3.94,4.64-.07.11-.13.23-.16.36-.26.89-.48,1.73.14,2.64.59.84.67,1.86-.12,2.67-.63.65-1.33,1.3-2.11,1.74-1.2.66-2.5,1.15-3.76,1.69-1.12.48-1.62,1.42-1.29,2.55.34-.15.67-.3,1.01-.45,1.23-.57,2.46-.55,3.69-.04.32.13.64.28.97.41,1.91.77,3.6.46,5.03-1.06.65-.69,1.28-1.39,1.93-2.07.28-.3.6-.57.95-.9-.1.76-.2,1.41-.26,2.06-.08.96.04,1.01.9,1.38.62.27,1.28.64,1.69,1.15.67.83.38,2.09-.51,2.89-1.77,1.58-3.07,3.41-3.34,5.85-.18,1.64-1.04,2.93-2.31,3.91-1.96,1.51-4.25,1.75-6.62,1.5-.77-.08-1-.52-.72-1.28.35-.94.85-1.83,1.15-2.79.27-.84.55-1.75.49-2.61-.12-1.91-2.6-3.86-4.8-3.95.07.15.14.28.21.42.14.27.29.54.43.81,1.17,2.45.75,4.18-1.54,5.64-1.07.68-1.7,1.57-2.11,2.73-.33.92-.71,1.84-1.18,2.7-.54.96-1.45,1.34-2.52,1.1-.76-.17-1.49-.45-2.19-.66-.34,1.82-.68,3.65-1.03,5.49-.06.12.08.26.22.38,3.67,3.15,5.21,7.03,4.43,11.89-.46,2.82-.56,5.71-.76,8.57-.04.63.1,1.31.29,1.92.51,1.65.9,3.3.78,5.04-.1,1.49-.43,2.93-1.48,4.05-.46.49-.54.95-.42,1.53.03.15.05.3.06.46.25,3.38,1.26,6.48,3.41,9.15.74.93,1.06,2,1.08,3.17.02,1.14-.02,2.28.01,3.42.04,1.15.22,2.26,1.02,3.38ZM-1532.02,862.36c-.08,0-.15.01-.23.02-.1.14-.2.28-.29.43-3.06,5.02-4.65,10.5-5.04,16.34-.39,5.77.38,11.41,1.93,16.96.32,1.15.65,2.3.99,3.51-.12-.06-.17-.07-.19-.11-1.83-2.86-4.16-5.31-6.47-7.78-1.39-1.49-2.25-3.25-2.71-5.25-1.31-5.69-3.7-10.89-7.32-15.48-1.83-2.32-4.03-4.22-6.92-5.13-.79-.25-1.62-.35-2.32-.49.63.71,1.25,1.45,1.91,2.14,1.28,1.34,1.99,2.91,2.01,4.78.02,1.82.08,3.64.11,5.46,0,.3-.07.61-.07.91,0,1.75-.18,3.52.05,5.23.49,3.55,2.43,6.38,4.97,8.82,2.69,2.59,5.87,4.5,8.94,6.58,1.63,1.1,3.21,2.28,4.75,3.52,1.1.89,1.98,2.01,2.35,3.42.17.66.18,1.37.26,2.05-.07,0-.13.01-.2.02-.53-.69-1.04-1.4-1.6-2.07-2.14-2.57-4.87-4.4-7.72-6.06-3.76-2.19-7.77-3.97-11.24-6.65-1.12-.87-2.29-1.71-3.27-2.72-1.13-1.16-1.67-2.66-1.37-4.29.36-1.93.28-3.83.07-5.76-.15-1.31-.71-2.24-1.87-2.88-1.45-.8-2.45-2.04-3.14-3.53-.25-.55-.49-1.1-.81-1.84-.32.39-.55.7-.81.99-2.31,2.55-2.66,5.56-2.11,8.8.26,1.51.48,3.03.65,4.55.11,1.01.07,2.02-.5,3.09-.42-.35-.75-.76-1.06-1.18-1.27-1.73-2.55-3.46-3.78-5.22-.55-.79-1.13-1.6-1.44-2.49-.81-2.31-1.54-4.64-2.19-7-.63-2.28-1.51-4.43-2.75-6.43-.24-.39-.59-.7-.89-1.05-.22.35-.29.6-.3.85-.1,2.04-.29,4.07-.25,6.11.06,3.48.77,6.82,2.39,9.94.67,1.3.65,1.35-.34,2.45-.35.39-.69.5-1.21.31-3.74-1.35-6.49-3.74-8.02-7.46-.05-.11-.11-.21-.19-.37-2.23,1.94-2.31,4.25-1.25,6.92-.38-.23-.57-.34-.75-.46-1.37-.96-2.16-2.33-2.65-3.89-.75-2.39-.8-4.88-1.04-7.34-.18-1.86-.37-3.71-1.2-5.42-.91-1.88-2.93-3.14-5.8-2.85.05.08.08.16.13.22.96,1.2,1.42,2.58,1.33,4.1-.09,1.42-.19,2.85-.49,4.23-.64,2.97-.05,5.64,1.81,7.98.99,1.24,2.16,2.36,3.29,3.48.54.54,1.2.96,1.8,1.44-.34.01-.63-.07-.92-.14-1.9-.51-3.82-.84-5.78-.45-1.27.25-2.41.75-3.13,2.01.32.13.58.25.84.35,5.11,1.97,10.37,3.44,15.72,4.64,4.94,1.1,9.92,2.01,14.96,2.48,2.56.24,4.71,1.23,6.63,2.86.17.14.31.31.46.47-.03.06-.06.12-.09.17-2.6-.58-5.18-1.42-7.89-.84-2.7.58-4.96,1.95-6.87,3.67,1.04.49,2.08.92,3.06,1.46.92.51,1.76,1.15,2.64,1.72,2.65,1.72,5.36,1.85,8.13.32.17-.09.35-.18.54-.23,2.94-.82,5.92-1.37,8.99-1.49,5.68-.21,10.85,1.18,15.33,4.79,1.15.93,2.24,1.93,3.36,2.9-.03.07-.07.13-.1.2-.55-.18-1.1-.33-1.63-.55-3.56-1.49-7.11-2.96-10.95-3.57-3.37-.53-6.69-.41-9.88.91-1.05.43-2.01,1.07-3.06,1.51-2.67,1.14-5.43,1.06-8.2.47-4.32-.91-8.14-2.9-11.73-5.41-.21-.15-.43-.3-.65-.44-.04.04-.08.09-.12.13.4.72.74,1.49,1.21,2.17,3.94,5.68,9.18,9.76,15.46,12.57,1.09.49,2.27.77,3.46.45,1.18-.31,2.36-.67,3.47-1.17,2.43-1.1,4.79-2.36,7.22-3.45,3.63-1.63,7.37-1.85,11.14-.53,3.76,1.31,6.43,3.76,7.57,7.68.14.47.1.99.15,1.49-.08.03-.17.05-.25.08-.14-.17-.27-.35-.42-.51-1.14-1.21-2.17-2.54-3.44-3.6-2.15-1.79-4.68-2.73-7.51-2.1-1.24.27-2.47.79-3.56,1.44-2.34,1.37-4.08,3.39-5.76,5.67.29-.09.43-.12.57-.17,2.14-.88,4.38-1.25,6.67-1.27,3.89-.03,7.6.84,11.14,2.44.94.42.98.55.43,1.44-.25.41-.53.81-.83,1.18-1.18,1.41-2.33,2.86-3.59,4.2-.8.85-1.73,1.64-2.73,2.24-1.8,1.09-3.64.89-5.25-.45-.81-.68-1.56-1.5-2.14-2.38-1.19-1.82-2.73-3.19-4.69-4.09-3.02-1.4-6.24-1.84-9.53-1.87-1.65-.02-3.31.05-5.05.08.11.16.12.21.15.23,4.1,2.07,7.54,5.03,10.83,8.16,1.89,1.8,3.71,3.68,5.6,5.48,1.36,1.29,3,1.93,4.9,1.9,1.97-.03,3.73-.72,5.41-1.65,3.05-1.67,5.58-4.01,8.1-6.36.82-.76,1.65-1.51,2.5-2.24.19-.17.46-.24.72-.37.15.99.23,1.86.41,2.71.37,1.82,1.44,3.31,2.33,4.9.53.94,1,1.95,1.3,2.99.38,1.28-.3,2.31-1.64,2.47-.96.12-1.97.07-2.93-.07-1.04-.15-2.05-.51-3.17-.8.31.42.55.78.82,1.12,1.52,1.89,3.16,3.66,5.43,4.68,1.98.89,3.86.73,5.53-.69,1.49-1.26,2.58-2.78,2.08-4.85-.22-.91-.67-1.82-1.21-2.59-1-1.41-2.21-2.67-3.21-4.08-.62-.88-1.22-1.86-1.5-2.88-.58-2.09,1.22-3.74,3.29-3.12.62.19,1.26.42,1.81.75,2.14,1.28,4.24,2.64,6.39,3.9,1.32.77,2.65,1.69,4.1,2.02,4.38,1.01,8.21-.05,11.1-3.7.84-1.07,1.67-2.15,2.54-3.19.73-.87,1.6-1.56,2.75-1.8.33-.07.66-.09,1.03-.14-1.52-1.82-4.29-3.19-6.61-3.21-2.44-.03-4.61.67-6.32,2.53-1.28,1.4-2.9,2.08-4.79,1.75-2.34-.41-4.3-1.66-5.96-3.28-1.53-1.49-3.25-2.07-5.3-1.86-.51.05-1.01.14-1.59.22.06-.21.07-.32.12-.41.06-.12.13-.23.21-.33,1.67-1.83,3.73-2.73,6.21-2.5,1.53.14,3.04.47,4.56.56,4.84.31,9.56-.39,14.22-1.7,3.67-1.03,6.9-2.75,9.45-5.65,1.31-1.48,2.64-2.94,4-4.37.76-.8,1.6-1.53,2.4-2.29l-.17-.21c-.81.37-1.63.71-2.42,1.12-3.46,1.79-6.9,3.62-10.38,5.39-2.4,1.22-4.95,1.71-7.65,1.28-1.87-.29-3.55-1.08-5.16-2.03-.43-.25-.91-.4-1.36-.6-.24-.11-.47-.24-.7-.36.13-.24.21-.58.41-.69.68-.38,1.38-.78,2.13-.98,2.11-.56,4.15-1.32,5.98-2.48,2.94-1.86,5.83-3.82,8.7-5.78,4.4-3,9.16-5.11,14.46-5.92,3.31-.51,6.63-.97,9.93-1.56,5.05-.91,9.33-3.2,12.54-7.3,1.35-1.71,2.62-3.52,4.79-4.32-.06-.1-.08-.15-.11-.17-.82-.63-1.67-.55-2.53-.1-.62.33-1.21.71-1.83,1.03-.41.22-.86.37-1.24-.14.16-.26.31-.52.47-.78,1.07-1.76,2.11-3.55,2.6-5.57.29-1.21.49-2.45.61-3.68.17-1.81,1.3-3.06,2.35-4.38.34-.43.67-.87,1.01-1.31-.37-.05-.65,0-.9.11-1.27.58-2.59,1.09-3.8,1.78-2.54,1.44-5.03,2.98-6.62,5.57-.62,1.01-1.3,1.98-1.88,3.01-2.54,4.55-6.05,8.17-10.53,10.8-2.92,1.72-5.97,3.22-8.97,4.81-.49.26-1.01.46-1.52.68-.04-.05-.09-.11-.13-.16.51-.58,1.02-1.16,1.54-1.73,1.24-1.37,2.51-2.74,3.16-4.49,1.47-3.97,2.46-8.04,2.21-12.32-.04-.74-.27-1.48-.45-2.36-1.66,1.67-2.98,3.3-3.54,5.44-.37,1.41-.79,2.82-1.29,4.2-1.07,2.9-2.38,5.69-4.87,7.68-1.67,1.34-3.49,2.51-5.2,3.8-.78.59-1.5,1.27-2.18,1.97-.83.85-1.56,1.79-2.38,2.63-1.98,2.04-4.14,3.87-6.85,4.88-.91.34-1.89.52-2.94.8.5-1.5,1.09-2.69,2.28-3.46,2.53-1.62,4.18-3.95,5.35-6.67.7-1.65,1.37-3.32,2.09-4.96.82-1.88,1.86-3.63,3.52-4.93,1.3-1.02,2.8-1.58,4.54-1.96-1.59-.56-3.06-.61-4.44,0-1.37.6-2.64,1.45-3.95,2.19-.35.2-.7.38-1.05.58-.05-.22-.01-.31.04-.39,1.67-2.45,2.07-5.15,1.62-8.04-.35-2.31-.67-4.62-1-6.94-1.39.94-2.54,2.17-2.72,4.08-.27,2.78-1.03,5.41-2.45,7.83-.59,1-1.23,1.97-1.81,2.98-.54.94-.86,1.93-.76,3.07.18,2.06-.36,3.99-1.28,5.83-1.1,2.19-2.63,4.09-4.21,5.94-.67.79-1.35,1.57-2.1,2.44-.37-2.11-.23-3.99.81-5.74.89-1.51,2.17-2.63,3.6-3.59.57-.38,1.03-.84,1.16-1.53.32-1.77-.32-3.32-1.15-5.03-.41,1.79-.92,3.34-1.94,4.67-1.18,1.53-3.02,2.59-4.14,2.28.17-.36.32-.72.52-1.06.43-.76.89-1.51,1.33-2.27,1.41-2.46,2.68-4.98,3.14-7.82.27-1.62.28-3.24-.36-4.79-.44-1.07-.98-2.11-1.49-3.19-.42.56-.94,1.2-1.41,1.88-1.61,2.3-2.1,4.97-2.46,7.68-.38,2.88-1.24,5.59-2.92,8.01-.59.85-1.24,1.65-1.8,2.51-1.53,2.33-2.37,4.96-3.17,7.61-.17.57-.35,1.14-.56,1.82,0-1.59,0-3.05,0-4.51,0-2.11.69-3.97,1.86-5.72.98-1.45,1.84-2.98,2.71-4.5,1.32-2.29,1.99-4.8,1.57-7.39-.52-3.21-1.37-6.36-2.11-9.66-4.78,3.46-6.76,8.25-7.5,13.72-.15-.87-.27-1.73-.39-2.6-.25-1.96-.4-3.93-.05-5.9.19-1.05.5-2.09.64-3.15.34-2.47-.02-4.91-.59-7.3-.45-1.9-1.06-3.77-1.6-5.66ZM-1579.98,865.73c.43-.53.68-.8.88-1.1,1.24-1.88,2.47-3.78,3.71-5.66,1.78-2.71,3.58-5.41,5.37-8.11.16-.24.34-.46.51-.69l.24.2c-1.02,3-2.32,5.91-3.88,8.65-1.57,2.74-3.5,5.27-5.24,7.83.93,1.93,1.89,3.93,2.87,5.98.17-.23.32-.41.46-.6,1.82-2.53,3.6-5.08,5.46-7.57,2.06-2.75,4.2-5.45,6.33-8.15.3-.38.71-.67,1.06-1,.06.04.11.08.17.11-.07.29-.09.6-.21.86-1.5,3.41-3.1,6.79-5.27,9.82-2.09,2.92-4.37,5.71-6.57,8.55-.27.35-.33.63-.16,1.06.89,2.21,1.74,4.44,2.6,6.67.04.1.07.21.12.31.05.09.11.17.25.38-.84-5.95.87-10.77,5.62-14.5.11.56.19,1.03.29,1.49.38,1.7.83,3.4,2.21,4.6,1.26,1.09,2.53,2.16,3.5,3.54.15.22.5.3.75.44.12-.27.33-.53.35-.81.08-.96.12-1.93.12-2.89,0-2.62-.78-4.95-2.69-6.85-.48-.47-.83-1.07-1.23-1.62-.54-.74-.57-1.59-.51-2.45.03-.38.21-.54.6-.49.87.1,1.75.14,2.61.27,3.22.49,6.09,1.72,8.5,3.97,2.13,1.99,3.52,4.45,4.62,7.11.48,1.15.93,2.31,1.47,3.44.22.45.62.82.99,1.28.11-.2.13-.23.13-.24-.14-.55-.29-1.1-.42-1.65-.73-2.99-.95-5.97.22-8.92.06-.16-.12-.51-.29-.65-1.09-.91-1.9-2.01-2.34-3.36-.72-2.21-.5-4.41.13-6.6.07-.25.06-.63-.09-.81-.91-1.12-1.6-2.37-1.92-3.77-1.19-5.11-.34-9.89,2.36-14.43-1.03-1.98-1.3-2.7-1.13-4.14.13-1.05.44-2.09.74-3.12.38-1.27.57-2.5.32-3.87-.53-2.86-1.83-5.18-4.22-6.86-1.17-.82-2.37-1.58-3.55-2.38-1.92-1.31-3.33-3.03-4.08-5.25-.17-.49-.3-1-.48-1.6-.22.31-.4.53-.54.77-1.09,1.81-1.92,3.73-2.37,5.81-.47,2.18-.04,3.24,1.83,4.45.68.44,1.39.83,2.08,1.26.56.35.83.89.86,1.54.02.37.04.75.05,1.12.03,1.69-.46,2.01-2.01,1.22-.72-.37-1.4-.82-2.09-1.24-.96-.6-2.01-.78-3.09-.54-1.67.36-3.31.83-4.99,1.15-1.15.22-2.34.4-3.5.32-1.4-.1-2.35-2.68-1.52-3.82.05-.07.11-.14.18-.19.48-.28.59-.75.59-1.24,0-1.08.02-2.18-1.04-2.88-.14-.09-.26-.26-.31-.42-.46-1.42-.69-2.88.28-4.15.6-.79,1.46-1.37,2.2-2.05.3-.28.65-.55.84-.9.47-.86.64-.97,1.58-.69.77.23,1.53.53,2.32.72,2.27.55,4.6-1.07,4.96-3.45-.22,0-.44.01-.66,0-1.2-.09-2.33-.42-3.33-1.1-.69-.47-1.06-1.05-.89-2,.48-2.74.52-5.5-.23-8.22-.74-2.68-2.2-4.77-5.13-5.29-1.12-.2-2.35-.24-3.45,0-2,.45-3.94,1.16-5.89,1.79-2.36.76-4.69,1.59-7.22,1.53-1.81-.04-3.18-.72-3.8-2.54-.01-.03-.07-.05-.19-.14-.28.74-.6,1.43-.8,2.16-.44,1.62.2,2.8,1.83,3.11,1.19.23,2.43.18,3.65.23.41.02.82-.03,1.41-.06-1.3,1.02-2.58,1.36-3.99,1.11-.56-.1-.99,0-1.47.31-8.92,5.65-17.84,11.3-26.78,16.92-2.24,1.41-4.54,2.73-6.82,4.11.04.04.07.07.1.08.1.05.2.09.3.13,2.65,1.07,5.39,1.05,8.15.58,4.37-.74,8.37-2.48,12.25-4.57.32-.17.63-.34,1.06-.57,0,.31.06.52,0,.68-.42.95-.75,1.98-1.34,2.81-1.5,2.12-3.55,3.69-5.63,5.2-4.73,3.43-9.84,6.23-14.97,9-.86.46-1.72.93-2.59,1.39,0,.07,0,.14,0,.21,1.1.22,2.19.51,3.3.65,3.18.39,6.29-.07,9.21-1.28,2.56-1.06,5-2.41,7.49-3.63.28-.14.56-.25.85-.37l.14.17c-.29.43-.53.9-.88,1.27-1.52,1.64-3.02,3.3-4.63,4.85-4.89,4.72-9.83,9.4-14.75,14.1-.5.48-.97.99-1.52,1.56,1.19.31,2.27.33,3.35.13,1.94-.36,3.62-1.28,5.21-2.4,3.13-2.22,5.88-4.85,8.5-7.64,1.17-1.24,2.45-2.38,3.71-3.54.19-.18.54-.18.82-.26,0,.33.06.67,0,1-.03.19-.24.36-.37.54-.61.83-1.25,1.64-1.82,2.5-5.47,8.26-9.26,17.26-11.61,26.86-.62,2.53-1.07,5.11-.81,7.75.1,1.04.3,2.07,1.41,2.66.13-.28.24-.49.33-.71,3.19-7.7,6.37-15.41,9.58-23.1,1.47-3.53,2.99-7.05,4.5-10.57.22-.51.51-.98.77-1.47.07.02.13.03.2.05.02.2.07.41.06.61-.05.81-.06,1.62-.17,2.43-.58,4.3-1.14,8.6-1.33,12.94-.28,6.44-.31,12.85.84,19.21.34,1.86.7,3.72,1.1,5.8,1.18-1.82,2.85-1.73,4.47-1.63.26-.66.08-1.12-.31-1.54-1.66-1.78-2.3-3.9-2.08-6.29.15-1.61.4-3.22.58-4.83.17-1.5.16-2.99-.72-4.31-.24-.37-.58-.76-.96-.93-.67-.29-.94-.78-1.14-1.42-.17-.53-.01-.86.5-.99,1.03-.27,2.07-.55,3.11-.75.41-.08.59-.18.65-.62.26-1.93.52-3.86.88-5.78.42-2.19.97-4.36,1.98-6.37.15-.31.4-.57.71-.99.34,1.06.12,1.9-.01,2.73-.5,3.13-1.04,6.26-1.53,9.4-.2,1.31-.16,1.32,1.17,1.75.14-.2.3-.4.44-.62,1.7-2.63,3.36-5.29,5.1-7.9,1.8-2.7,3.66-5.35,5.51-8.02.23-.33.56-.59.85-.89.06.05.12.1.18.15-2.12,6.85-6.19,12.62-10.31,18.2,1.12,1.53,2.17,2.97,3.21,4.39,0,0,.09-.09.17-.19,2.83-3.57,5.64-7.17,8.51-10.71,1.55-1.91,3.2-3.72,4.82-5.57.18-.2.44-.34.67-.5.05.05.1.09.15.14-.17.39-.31.8-.52,1.18-.71,1.28-1.4,2.58-2.17,3.83-1.66,2.66-3.12,5.44-5.21,7.81-1.57,1.78-3.07,3.62-4.72,5.31-1.05,1.08-1.52,2.17-1.25,3.68.25,1.38.29,2.8.44,4.28.2-.13.32-.19.42-.26,2.69-2.03,5.09-4.37,7.29-6.91.46-.53.71-1.06.59-1.78-.06-.34,0-.7.05-1.05.23-1.4.49-2.8.73-4.2.08-.46.41-.46.69-.32.37.18.73.41,1.02.7.48.48.89,1.03,1.42,1.67ZM-1531.48,779.9c1.74-.83,3.4-1.71,5.13-2.43,3.22-1.34,6.61-2.01,10.07-2.34,2.47-.24,4.96-.41,7.41.01,5.09.88,10.17,1.82,15.24,2.77,7.3,1.38,14.59,2.78,22.02,3.17,1.42.07,2.84.01,4.27.01v-64.21c-.3.02-.55.04-.81.06-1.33.11-2.66.27-4,.34-4.78.26-9.56.15-14.32-.37-4.67-.51-9.28-1.35-13.69-2.99-4.79-1.78-9.69-2.09-14.69-1.46-5.48.69-10.74,2.22-15.84,4.32-.64.26-.81.59-.81,1.25.02,20.4.02,40.81.02,61.21,0,.24,0,.47,0,.66ZM-1534.43,779.92v-.55c0-20.6,0-41.21.01-61.81,0-.47-.13-.74-.55-.98-5.03-2.85-10.49-4.12-16.2-4.4-6.52-.32-12.86.71-18.96,2.98-3.74,1.4-7.56,2.07-11.51,1.98-4.05-.1-8.1-.4-12.15-.62-.67-.04-1.33-.12-2.05-.18v.88c0,2.96,0,5.92,0,8.89,0,17.99,0,35.99-.01,53.98,0,.63.17.8.8.82,4.71.15,9.38-.28,13.99-1.17,5.97-1.16,11.92-2.44,17.88-3.65,3.05-.62,6.12-1.22,9.24-1.2,4.4.02,8.65.97,12.79,2.41,2.25.78,4.43,1.73,6.72,2.63ZM-1518.28,790.61c-.14.05-.24.08-.33.13-1.29.61-2.63.87-4.03.53-1.06-.26-2.1-.6-3.11-1-1.97-.78-3.85-1.79-5.99-2.09-2.82-.38-6.35,1.03-7.06,3.41-.15.48-.61.54-1,.19-.23-.2-.42-.45-.65-.65-.55-.49-1.14-.43-1.77-.14-.61.28-.55.8-.49,1.29.05.41.18.81.34,1.19.27.65.58,1.27.88,1.91.22.46.06.64-.43.66-.58.03-1.05-.19-1.34-.67-.3-.5-.52-1.05-.77-1.59-.25-.53-.46-1.09-.74-1.6-.2-.36-.52-.52-.94-.29-1.96,1.06-3.48,2.53-4.19,4.68-.63,1.92.4,4.26,2.14,5.07.28-1.66,1.38-2.79,2.99-3.05,1.27-.21,2.5.57,3.25,2.08.22.45.39.92.61,1.42.43,0,.86-.02,1.3,0,2.79.15,4.9,1.37,6.04,4,.2.47.49.64.95.74,1.56.34,3.03.87,4.13,2.13,1.03,1.18,1.23,3,.47,4.08-.57-.66-1.09-1.36-1.72-1.97-1.35-1.31-2.96-2.12-4.88-1.73-.98.2-1.93.67-2.84,1.12-1.44.72-2.83,1.54-4.51.69.31,1.79,2.14,3.02,3.84,2.68.66-.13,1.35-.19,2.02-.16,1.19.05,2.09.8,2.31,1.81.19.88-.35,1.84-1.35,2.42-.23.13-.48.26-.74.4.63.84,1.42,1.04,2.32.81,1.44-.37,2.53-1.26,3.44-2.4.31-.39.59-.8.91-1.23.61,1.76-.12,3.82-1.73,4.99-1.32.96-2.85,1.42-4.43,1.74-.96.19-1.92.33-2.91.5.28,1.34,1.42,1.59,2.39,1.99-.03.07-.03.1-.04.1-.13.02-.26.03-.39.04-1.41.14-2.74.53-3.98,1.24-3.89,2.23-5.22,7.43-4.68,11.46.32-.09.65-.12.93-.27.54-.29,1.04-.64,1.55-.98.47-.32.91-.68,1.39-.98.13-.08.47-.09.51-.01.1.16.1.41.07.61-.02.13-.19.23-.28.35-.75.95-1.56,1.85-2.22,2.85-2.6,3.91-4.19,8.13-3.61,12.94.17,1.42.59,2.77,1.36,4,1.56-.71,1.87-2.26,2.49-3.57.87.32,1.25,1.11,1.09,2.11-.25,1.54-1.11,2.79-2,4.02-.26.35-.61.68-.73,1.08-.44,1.38-.78,2.79-.63,4.26.13,1.26.75,2.19,1.95,2.64.17.06.54-.03.63-.17.32-.51.66-1.05.82-1.63.22-.8.28-1.64.43-2.45.03-.17.15-.32.23-.49.17.08.37.13.5.26.16.17.32.39.36.61.18.87.33,1.75.47,2.63.06.41-.16.64-.5.89-.49.35-.94.8-1.28,1.29-.8,1.15-1.13,2.5-1.36,3.87-.46,2.82-.32,5.64.14,8.45.58,3.57,1.65,6.98,3.5,10.12.11.19.23.36.45.7-.02-.27-.02-.34-.04-.39-2.01-5.5-2-11.1-.21-16.58,1.83-5.59,4.06-11.04,6.12-16.55.04-.11.13-.19.31-.45,2.98,6.05,4.22,12.4,4.92,19.02.56-.6,1.08-1.07,1.49-1.63.92-1.25,1.76-2.57,2.68-3.82.54-.73,1.18-1.39,1.77-2.07.07.02.14.05.21.07.83,3.45,1.67,6.9,2.55,10.53.39-.98.73-1.8,1.05-2.63.92-2.36,1.33-4.79,1.15-7.33-.21-3-1.04-5.85-2.06-8.65-.09-.25-.16-.51-.24-.77.06-.03.12-.07.18-.1,1.53.88,1.72,2.82,3.06,4.06.14-.43.29-.74.34-1.07.31-1.99-.17-3.87-.76-5.74-.1-.32-.3-.64-.53-.88-1.62-1.72-2.68-3.73-3.13-6.04-.08-.42-.01-.88-.01-1.32l.17-.04c.15.25.32.5.46.76.59,1.05,1.15,2.12,1.79,3.13.25.39.7.66,1.16,1.08.08-.39.14-.58.16-.77.26-2,.56-3.99.77-6,.16-1.56.44-3.14-.06-4.7-.84-2.63-2.3-4.88-4.31-6.74-1.56-1.45-2.44-3.23-2.91-5.26-.12-.5-.14-1.03-.2-1.55.09-.03.18-.07.27-.1.55.86,1.1,1.72,1.64,2.58.34.54.7,1.04,1.42,1.26.51-2.03.19-3.99-.16-5.96-.35-1.99-1.48-3.64-2.34-5.43.3.07.57.16.73.34.68.77,1.31,1.57,1.98,2.34.35.4.73.76,1.1,1.14l.27-.06c.43-1.39.92-2.76,1.26-4.17.51-2.12.43-4.2-.76-6.17.56.41.98.91,1.49,1.3.58.44,1.21.84,1.88,1.15.44.21.92.06,1.33-.38-2.24-1.14-3.17-3.06-3.4-5.4-.19-1.84-.41-3.66-1.51-5.24-.1-.14-.06-.38-.09-.63.65.33,1.18.64,1.74.86.61.24,1.25.25,1.83-.14.52-.36.82-.86.95-1.49-2.08.16-3.08-.45-3.65-2.23-.13-.39-.25-.81-.26-1.21-.04-1.36-.76-2.24-1.92-2.83-.32-.16-.64-.32-.83-.41,1.24-.4,2.6-.71,3.83-1.28,1.89-.86,2.53-3.15,1.8-4.88-1.72,2.26-3.49,3.02-5.61,2.35,1.21-.62,1.86-1.52,1.62-2.95ZM-1443.38,762.96c.04-1.18-1.14-3.8-2.33-5.02-1.32-1.36-2.96-1.93-4.82-1.76-1.59.14-3.17.43-4.76.54-3.26.22-6.55.54-9.65-.99v12.05c.98-.13,1.91-.22,2.83-.39,4.08-.73,7.84-2.27,11.34-4.48,1.36-.86,2.83-1.19,4.39-.86,1.03.22,2.03.61,3.01.91ZM-1464.78,730.35c0,.23,0,.4,0,.57,0,3.64.01,7.28-.01,10.92,0,.6.21.74.76.75,1.71.02,3.3-.49,4.82-1.15,3.1-1.36,6.16-2.83,9.24-4.24,2.23-1.03,4.44-1.17,6.67.2-.5-2.69-1.69-4.84-4.21-6.02-2.08-.97-4.21-1.02-6.39-.24-2.35.84-4.76.94-7.18.35-1.22-.3-2.41-.73-3.7-1.13ZM-1609.4,761.99c-.01-4.02-2.85-6.88-6.81-6.86-4.11.02-6.98,2.86-6.96,6.93.01,3.97,2.98,6.84,7.04,6.79,3.97-.04,6.74-2.87,6.73-6.86ZM-1622.95,734.64c0,4,2.76,6.8,6.75,6.82,3.95.03,6.78-2.85,6.76-6.89-.01-4.01-2.81-6.85-6.74-6.85-3.93,0-6.77,2.9-6.77,6.91ZM-1535.75,807.83c-1.09-2.31-2.86-3.36-5.13-3.49-1.79-.11-3.59.04-5.38.04-1.47,0-2.94.06-4.39-.1-1.82-.2-2.85-1.31-3.15-3.11-.06-.38-.1-.76-.17-1.32-.54.59-1.03,1.05-1.43,1.59-1.41,1.88-1.21,3.74.55,5.3,1.48,1.32,3.28,1.53,5.13,1.3,2.19-.27,4.37-.69,6.55-1.03,2.49-.39,4.97-.64,7.44.81ZM-1598.85,739.25v-7.8h-7.9v7.8h7.9ZM-1606.74,758.78v7.76h7.89v-7.76h-7.89ZM-1457.17,889.61c-.16.08-.21.09-.24.12-1.95,2.37-4.3,4.23-7.12,5.49-.2.09-.39.34-.46.56-.7,2.32-1.1,4.7-.97,7.12.04.8.22,1.61.48,2.36.27.78.83.86,1.41.28.25-.24.46-.53.65-.82,2.43-3.53,4.16-7.39,5.32-11.5.33-1.16.6-2.34.91-3.61ZM-1604.45,890.2c1.16,3.35,2.26,6.64,3.44,9.91.42,1.15,1.01,2.23,1.58,3.31.38.71.92.73,1.36.06.25-.38.45-.81.57-1.24.87-3.11.53-6.16-.53-9.16-.07-.19-.3-.37-.5-.45-1.91-.8-3.83-1.57-5.93-2.43ZM-1476.82,878.12c-.08.15-.11.18-.12.22-.3,1.99-.61,3.97-.89,5.96-.02.15.14.4.28.49.84.51,1.69.98,2.6,1.5,1.25-1.11,2.51-2.24,3.83-3.41-1.98-1.65-3.82-3.19-5.71-4.77ZM-1582.46,883.77c.07-.04.13-.07.2-.11-.38-1.66-.88-3.31-1.11-4.99-.23-1.7-.2-3.44-.29-5.23-1.14,1.02-2.22,1.96-3.28,2.95-.63.59-.68.98-.33,1.75.79,1.75,2.12,3.09,3.44,4.43.43.43.91.8,1.37,1.2ZM-1478.38,886.07c-.58,1.3-1.1,2.48-1.61,3.65.06.05.12.1.19.15,1.37-.46,2.39-1.47,3.55-2.42-.72-.47-1.38-.89-2.12-1.37Z"/>
    <path class="cls-1" d="M-1512.87,744.06c-.1-.15-.26-.29-.28-.45-.25-2.05-1.61-3.02-3.44-3.48-2.11-.52-4.54.39-5.76,2.15-.3.44-.52.97-.64,1.49-.29,1.19.06,1.66,1.29,1.68,2.97.03,5.89-.33,8.72-1.29.08-.03.17-.01.3-.02v3.37c-2.22-.78-4.48-.62-6.67-.98-.86-.14-1.74-.22-2.61-.25-.98-.03-1.23.36-.91,1.26.99,2.75,4.15,4.51,6.8,3.72,1.55-.46,2.63-1.44,2.87-3.15.02-.16.25-.29.38-.43.1.14.28.28.28.43,0,1.45-.01,2.89-.05,4.34,0,.13-.16.33-.27.36-.1.02-.35-.15-.36-.24-.06-.85-.6-.67-1.14-.6-1.51.22-3.02.49-4.54.59-2.25.14-4.12-.89-5.81-2.24-.47-.37-.85-.98-1.04-1.56-1.05-3.26-.53-5.47,2.08-7.78,1.73-1.53,3.82-2.09,6.02-2.33,1.12-.12,2.26.03,3.39.06.45,0,.93.09,1.16-.48.04-.1.24-.22.34-.2.11.03.21.19.28.31.04.07.01.17.01.26-.01,1.58-.01,3.16-.04,4.74,0,.23-.12.47-.18.7-.06,0-.13.01-.19.02Z"/>
    <path class="cls-1" d="M-1492.13,760.77c.76-.84,1.56-1.74,2.4-2.66,1.07.83,1.9,1.68,2.56,2.7.11.18.09.46.09.69-.03,1.69-.1,3.38-.1,5.06,0,.79.17,1.57.94,2.1-.58.5-1.11.98-1.68,1.41-.12.09-.42.06-.57-.03-.84-.48-1.46-1.16-1.63-2.1-1.4.59-2.79,1.16-4.18,1.76-.4.17-.64.05-.99-.2-1.26-.9-1.61-2.1-1.44-3.57.1-.87.08-1.75.08-2.63,0-1.83-.31-2.22-2.15-2.7.7-.63,1.34-1.21,1.99-1.77.79-.69.79-.69,1.54.02.82.78,1.37,1.6,1.17,2.87-.2,1.29-.17,2.62-.17,3.94,0,.29.2.71.43.85.95.59,2.01.69,3.1.46.56-.12.89-.48.89-1.06.01-1.29.04-2.59-.04-3.88-.02-.31-.35-.73-.64-.86-.52-.24-1.12-.29-1.61-.4Z"/>
    <path class="cls-1" d="M-1513.95,720.21c.79-.75,5.4-1.04,6.19-.38-.24.14-.43.31-.66.39-1.29.42-1.95,1.35-2.37,2.6-1.35,4.07-2.76,8.12-4.15,12.17-.05.14-.12.28-.21.49-.08-.15-.16-.24-.19-.34-1.39-4.14-3.2-8.09-5.24-11.95-.73-1.38-1.7-2.27-3.38-2.08-.19.02-.4-.21-.61-.32.21-.15.42-.44.63-.43,1.03.04,2.05.16,3.08.26,1.7.17,3.4.33,5.1.54.33.04.64.26.96.4-.27.22-.51.5-.81.64-1.12.5-1.29.77-.82,1.9.67,1.59,1.41,3.16,2.12,4.73.08.17.2.33.35.57.89-2.26,1.78-4.42,2.15-6.74.18-1.14-.44-1.95-1.54-2.19-.19-.04-.37-.15-.59-.25Z"/>
    <path class="cls-1" d="M-1508.37,752.06c1.22-1.27,1.95-2.69,2.31-4.29.26-1.15.34-2.31-.07-3.44-.17-.47-.4-.94-.71-1.32-.93-1.16-1.36-1.22-2.62-.46-.3.18-.59.39-.91.52-.17.07-.41-.01-.62-.03.07-.22.08-.53.23-.65.41-.32.9-.54,1.33-.85.82-.59,1.64-1.18,2.42-1.81.32-.26.59-.29.94-.15.91.38,1.7.9,2.21,1.94.93-.85,1.8-1.66,2.57-2.37,1.25.86,2.48,1.7,3.73,2.57-.62,1.57-3.01,1.8-5.32.34-.4.58-.59,1.17-.38,1.89.3,1.08.98,1.87,1.89,2.44,1.03.65,2.12,1.2,3.27,1.85-.92.93-1.87,1.91-2.85,2.86-.11.1-.51.05-.66-.08-.95-.83-1.87-1.7-2.84-2.59-1.05,1.32-1.75,3.18-3.92,3.63Z"/>
    <path class="cls-1" d="M-1477.02,736.05c-.84.92-1.67,1.82-2.51,2.75-.82-.43-1.19-1.16-1.48-1.99-1.62.28-2.89,1.2-4.12,2.17-2.5-1.79-2.66-4.75-.41-8.02-.18-.13-.37-.27-.55-.41-.62-.46-.81-1.05-.3-1.63.79-.9,1.65-1.74,2.57-2.51.65-.54,1.5-.58,2.32-.33.44.13.86.32,1.27.52,1.08.52,1.79,1.15,1.54,2.6-.24,1.41-.07,2.89-.14,4.33-.03.61.18,1.05.62,1.43.4.34.78.7,1.2,1.08ZM-1484.32,731.68c-1.1,1.88-.11,3.89.96,4.91.08.08.24.16.33.13.64-.2,1.26-.43,1.92-.65,0-.91.02-1.83-.01-2.75,0-.16-.17-.4-.32-.47-.94-.41-1.89-.77-2.88-1.17ZM-1481.12,732.37c0-.59-.03-1.09,0-1.58.09-1.09-.4-1.79-1.31-2.35-1.72-1.06-2.14-.99-3.26.69-.05.07-.1.15-.14.22-.19.29-.15.51.15.72,1.38.98,2.91,1.64,4.55,2.3Z"/>
    <path class="cls-1" d="M-1516.83,769.99c-2.06-2.17-2-4.46.41-7.09-.15-.36-.34-.7-.44-1.06-.28-.95-.26-1.86.51-2.62.77-.77,1.47-1.64,2.31-2.32,1.03-.84,1.84-.71,2.78.24.35.36.7.73,1,1.13.13.17.18.43.18.65-.01,1.53-.06,3.07-.08,4.6-.02,1.18,1.07,1.93,2.16,1.5.11-.04.24-.04.45.02-.87,1.34-1.98,2.48-3.05,3.82-.67-.59-1.32-1.14-2.09-1.81-1.56.47-2.72,1.9-4.13,2.94ZM-1512.59,762.94c0-.74.02-1.45,0-2.17-.04-.84-1.07-1.98-1.9-2.11-.16-.03-.36,0-.5.08-.7.39-1.09.99-1.12,1.8-.03.79-.05,1.56.81,2.04.85.48,1.72.61,2.72.35ZM-1515.39,763.77c-.11.5-.33,1.11-.34,1.72-.02.99.85,1.48,1.7,1.03.39-.2.77-.41,1.14-.66.14-.09.3-.28.31-.44.04-.58.01-1.17.01-1.66h-2.81Z"/>
    <path class="cls-1" d="M-1485.6,750.08c.09-3.9,2.61-6.55,5.65-7.63.21-.07.51.02.73.12,2.62,1.16,4.15,4.44,3.29,7.18-.32,1.01-.83,1.97-1.27,2.94-.07.15-.21.27-.34.39-.87.76-1.78,1.49-2.62,2.28-.37.34-.74.49-1.18.3-.71-.32-1.49-.58-2.06-1.07-1.45-1.24-2.1-2.91-2.2-4.5ZM-1479.39,753.81c.37-.89.76-1.6.97-2.37.58-2.1.56-4.1-1.45-5.54-.46-.33-.96-.6-1.44-.91-.38-.25-.67-.12-.99.14-1.21,1.03-1.41,2.36-1.15,3.82.42,2.29,2.19,3.46,4.04,4.86Z"/>
    <path class="cls-1" d="M-1493.85,726.26c.09,1.56.17,3.04.28,4.53.04.59.12,1.18.21,1.76.15.93.49,1.14,1.36.93.13-.03.38.02.4.09.06.19.12.47.03.61-.56.89-1.15,1.76-1.77,2.6-.33.45-.75.44-1.24,0-.94-.85-1.4-1.97-1.54-3.19-.24-2.11-.43-4.23-.6-6.34-.04-.46-.11-.79-.58-.96-.18-.06-.34-.19-.5-.32-.48-.39-.46-.54.08-.83,1.8-.99,3.11-2.46,4.15-4.2.13-.21.37-.35.56-.52,0,.28.1.58,0,.82-.35.89-.59,1.78-.38,2.75.08.37.21.59.63.59,1.27.01,2.54.05,3.81.07.37,0,.71-.03.71.51,0,.5-.31.52-.7.56-1.59.16-3.18.35-4.93.54Z"/>
    <path class="cls-1" d="M-1479.28,771.95h-2.76c0-1.43,0-2.79,0-4.14,0-1.07,0-2.15,0-3.22,0-.88-.25-1.29-1.08-1.59-.59-.21-1.21-.33-1.85-.49,1.11-.9,2.23-1.8,3.48-2.82.78.87,1.54,1.72,2.34,2.62.92-.62,1.74-1.19,2.67-1.82.7.58,1.44,1.21,2.2,1.82.14.11.35.14.53.19.19.05.39.08.59.12-.07.17-.1.39-.22.51-.79.73-1.6,1.43-2.46,2.19-.83-.76-1.61-1.48-2.38-2.19-.83.23-1.12.7-1.09,1.58.08,2.1.02,4.21.01,6.31,0,.28,0,.56,0,.94Z"/>
    <path class="cls-1" d="M-1486.51,750.42c-.17.19-.33.4-.51.57-.86.81-1.73,1.62-2.61,2.41-1.17,1.07-2.82,1.01-3.89-.17-.61-.68-1.2-1.4-1.72-2.15-1.42-2.05-1.18-5.26.65-6.92,1.17-1.06,2.57-1.88,3.89-2.77.11-.08.43-.02.54.09.93.96,1.83,1.94,2.74,2.91-.92.87-2.89,1.57-4.66-.77-2,1.09-2.55,3.41-1.24,5.25,1.31,1.84,3.33,2.57,5.56,1.97.19-.05.35-.25.53-.36.19-.11.39-.2.58-.31.05.08.1.16.15.25Z"/>
    <path class="cls-1" d="M-1525.43,753.85h3.09c0,.38,0,.68,0,.98,0,3.53,0,7.05.01,10.58,0,1.19.51,1.54,1.69,1.26.17-.04.36.03.54.04-.05.15-.06.34-.16.45-.88.97-1.77,1.93-2.77,3.02-.56-.54-1.19-1.09-1.74-1.71-.19-.22-.27-.6-.28-.91-.14-4.47-.25-8.93-.38-13.4,0-.1,0-.21,0-.31Z"/>
    <path class="cls-1" d="M-1501.92,754.08c-.02.27-.03.54-.08.81-.13.69-.32,1.36-.41,2.05-.11.89.08,1.08.96,1.17.28.03.57.08.85.09.4,0,.61.22.49.57-.06.2-.32.45-.52.48-.45.07-.92.05-1.38.02-.41-.03-.56.15-.55.53.04,1.88.06,3.77.14,5.65.03.71,1.19,1.1,1.99.72.12-.06.22-.17.34-.19.13-.03.29-.01.4.05.04.02.03.26-.03.34-.66.76-1.27,1.58-2.03,2.23-.97.83-2.91-.01-3.3-1.41-.18-.67-.28-1.38-.28-2.07,0-1.73.07-3.46.14-5.19.02-.46-.08-.75-.53-.91-.14-.05-.27-.15-.39-.23-.65-.44-.63-.64.05-1.04,1.43-.85,2.71-1.86,3.54-3.35.09-.15.25-.27.37-.4l.22.07Z"/>
    <path class="cls-1" d="M-1499.81,733.21c-.52.67-1.11,1.47-1.75,2.24-.25.3-1.85.18-2.16-.11-.96-.92-1.64-1.92-1.52-3.39.12-1.46,0-2.93-.06-4.4-.01-.26-.22-.6-.44-.76-.57-.4-1.2-.71-1.75-1.02-.38.15-.71.28-1.03.4-.04-.06-.08-.11-.12-.17.11-.14.2-.3.34-.42.87-.77,1.74-1.54,2.62-2.29.57-.49.82-.4,1.41.04,1.3.98,1.82,2.2,1.61,3.84-.15,1.14-.01,2.32-.06,3.48-.02.54.11.97.55,1.24.75.45,1.53.85,2.36,1.3Z"/>
    <path class="cls-1" d="M-1503.65,717.33c.27.34.43.67.69.84.78.51.86,1.3.65,2.03-.13.45-.63.89-1.07,1.13-.39.2-.92.15-1.3-.3-.41-.48-.83-1.79-.49-2.28.35-.5.91-.86,1.52-1.41Z"/>
    <path class="cls-1" d="M-1473.36,747.39c.47.1.96.14,1.39.33.25.12.39.48.58.74-.25.09-.51.26-.76.26-.45-.01-.91-.12-1.35-.21-.35-.07-.82-.06-.78-.59.05-.55.51-.5.92-.53Z"/>
    <path class="cls-1" d="M-1473.67,749.34c.68.14,1.2.18,1.64.37.24.11.37.49.54.76-.23.08-.47.24-.7.23-.47-.02-.96-.09-1.41-.23-.28-.09-.51-.37-.76-.56.25-.21.5-.41.68-.57Z"/>
    <path class="cls-1" d="M-1546.6,727.19c1.01.43,1.81.99,2.38,1.83.59.88.65,1.85-.06,2.62-2.93,3.17-6.96,4.33-10.87,1.56-.03-.02-.04-.07-.1-.17,1.09-1.01,2.19-2.03,3.33-3.09-.34-.31-.66-.59-.97-.89-1.46-1.46-1.46-2.82-.03-4.28.95-.97,2.04-1.72,3.32-2.18,1.87-.67,3.48-.14,4.91,1.13.33.29.65.58,1.07.95-.99.83-1.96,1.65-2.99,2.52ZM-1551.98,731.44c.85.97,1.83,1.65,3.04,1.91.93.2,1.88-.27,2.35-1.07.35-.59.25-1.17-.32-1.55-.4-.27-.85-.44-1.26-.71-.86-.56-1.62-.65-2.38.23-.38.44-.9.76-1.45,1.2ZM-1546.9,726.02c-1.08-.58-2.01-1.13-2.99-1.59-.63-.29-1.26-.06-1.77.36-.16.13-.31.53-.23.66.52.84,1.11,1.61,2.17,1.87,1.19.28,1.87-.47,2.81-1.3Z"/>
    <path class="cls-1" d="M-1548.64,762.18c-.46-.86-.58-1.86-.53-2.9.01-.18.09-.39.2-.53.89-1.08,1.94-1.95,3.2-2.57.72-.35,1.37-.24,1.91.33.69.73,1.36,1.49,2.01,2.26.12.14.14.4.15.6.11,2.01.2,4.02.31,6.04.04.75.98,1.2,1.62.81.15-.09.3-.19.46-.29.06.05.13.1.19.15-.11.21-.18.48-.34.63-.71.66-1.44,1.28-2.23,1.97-.67-.5-1.41-.98-2.04-1.56-.38-.35-.7-.42-1.1-.2-1.03.56-2.07,1.11-3.07,1.74-.38.24-.63.25-.98-.01-1.2-.89-1.68-2.91-.96-4.48.31-.69.79-1.3,1.22-1.97ZM-1544.69,762.71c0-.8.03-1.57-.02-2.32-.01-.26-.15-.58-.34-.74-.57-.46-1.19-.88-1.81-1.27-.15-.09-.45-.09-.6,0-.75.47-1.09,2.27-.49,2.92.84.89,1.89,1.45,3.25,1.41ZM-1544.77,763.64c-.98-.23-1.84-.45-2.72-.63-.12-.03-.32.11-.42.22-.37.41-.69.93-.37,1.42.41.64.99,1.18,1.5,1.75.03.03.13,0,.19-.02.62-.2,1.24-.4,1.82-.59v-2.17Z"/>
    <path class="cls-1" d="M-1579.03,758.91c.85-.78,1.7-1.57,2.58-2.38.53.89,1.04,1.76,1.59,2.69.97-.75,1.85-1.41,2.69-2.1.28-.23.47-.24.74-.04.88.62,1.25,1.51,1.32,2.53.15,2.21.26,4.42.39,6.63,0,.15.03.3.05.52.29-.05.54-.11.79-.13.16,0,.32.06.48.09-.08.16-.11.38-.24.48-.65.52-1.32,1.01-1.98,1.51-.38.29-.75.6-1.17.95-.57-.92-.8-1.9-.75-2.97.09-1.9.17-3.8.18-5.7,0-.32-.3-.7-.55-.95-.25-.25-.63-.38-.96-.57-.9.47-1.42,1.08-1.37,2.24.1,2.41.03,4.82.03,7.3-.62,0-1.23.03-1.83-.03-.14-.01-.34-.35-.35-.54-.04-1.6-.03-3.2-.05-4.8-.04-2.91.2-2.6-1.56-4.72Z"/>
    <path class="cls-1" d="M-1578.64,726.84c0,.94,0,1.89,0,2.83,0,.33-.08.62-.45.56-.16-.03-.36-.31-.41-.51-.14-.62-.18-1.26-.31-1.88-.46-2.24-3.03-3.5-5.11-2.53-1.68.78-2.86,2.98-2.69,5.1.12,1.55.45,3.03,1.67,4.16,1.24,1.15,2.78,1.36,4.22.46,1.42-.89,2.31-2.12,2.27-3.89,0-.17-.03-.4.06-.51.1-.12.38-.24.49-.18.14.07.27.32.27.49.01,1.18,0,2.37-.03,3.55-.02.62.12,1.16.51,1.65.13.16.22.38.26.58.02.12-.05.33-.15.39-.1.06-.32.03-.41-.05-.22-.2-.43-.44-.59-.69-.49-.73-.65-.77-1.53-.57-1.15.27-2.3.59-3.46.69-2.27.2-5.09-1.27-5.83-3.07-1.06-2.59-.85-5.07.96-7.19,2.05-2.41,4.57-2.77,7.44-2.05.38.1.76.21,1.14.3.51.13.83-.06.99-.58.06-.18.26-.31.4-.47.1.18.29.37.3.55.03.94.01,1.89.01,2.83,0,0-.02,0-.03,0Z"/>
    <path class="cls-1" d="M-1554.4,739.99c-.14-.15-.28-.29-.41-.44-1.04-1.2-2.32-1.92-3.95-1.86-.94.04-1.66.53-2.22,1.25-.4.53-.29,1.2.37,1.48.85.37,1.77.58,2.68.82.61.16,1.25.23,1.86.4,1.35.38,2.07,1.35,2.27,2.69.16,1.04.03,2.05-.39,3.02-.82,1.89-2.14,2.64-4.18,2.38-.98-.13-1.95-.25-2.93-.34-.49-.05-.89.08-1.08.64-.07.22-.36.36-.55.54-.14-.2-.38-.39-.4-.61-.13-1.48-.24-2.97-.31-4.46,0-.19.24-.4.37-.59.17.17.41.31.5.51.3.67.48,1.4.83,2.05.57,1.05,1.7,1.18,2.72,1.34.74.12,1.54.1,2.28,0,.9-.12,1.42-.76,1.54-1.65.12-.84-.32-1.86-1.09-2.23-.86-.42-1.78-.72-2.67-1.09-.89-.37-1.8-.7-2.64-1.16-1.33-.72-1.7-2.14-.88-3.42.93-1.46,2.27-2.37,4.03-2.5.85-.06,1.71-.03,2.56,0,.57.02,1.02-.05,1.07-.74,0-.04.04-.08.06-.11.03-.03.07-.04.24-.14.46,1.36.75,2.69.48,4.09l-.18.1Z"/>
    <path class="cls-1" d="M-1580.26,746.63c-1-.92-1.29-2.93-.57-3.98.88-1.3,2.03-2.31,3.59-2.7.34-.08.89.03,1.11.27.68.74,1.24,1.58,1.84,2.39.05.07.04.21.04.31-.06,1.99-.14,3.99-.19,5.98-.03.97.51,1.31,1.42.93.06-.02.13,0,.31,0-.06.19-.07.4-.17.5-.92.87-1.86,1.73-2.78,2.58q-.61-.49-1.1-2.23c-1.06.24-1.97.74-2.64,1.6-.28.37-.51.35-.81.12-.38-.3-.78-.58-1.1-.93-1.06-1.17-1.06-2.62-.02-3.8.32-.36.69-.67,1.06-1.04ZM-1576.84,745c.14-1.25-.37-2.21-1.22-3.01-.17-.16-.56-.3-.72-.21-1.92,1.06-2.44,3.03-.71,4.46.61.5,1.21.46,1.89.14.63-.3,1.01-.67.77-1.38ZM-1576.74,746.67c-.23.12-.37.18-.49.26-.64.44-1.28.75-2.06.33-.09-.05-.29.03-.38.11-.55.46-.58,1.08,0,1.57.5.41,1.07.74,1.64,1.07.32.19,1.28-.22,1.29-.52.02-.91,0-1.82,0-2.81Z"/>
    <path class="cls-1" d="M-1556.86,723.69c-1.69,1.61-3.38,3.22-5.06,4.82.75,1.96,2.77,3.12,4.75,2.8.52-.08,1.04-.15,1.56-.17.15,0,.37.14.45.28.04.07-.1.33-.23.42-.88.6-1.76,1.23-2.69,1.75-.37.2-.89.21-1.33.16-1.8-.19-3.38-.9-4.61-2.26-1.52-1.68-1.58-3.64-.9-5.66.69-2.06,2.02-3.57,4.1-4.32,1.18-.43,2.06-.17,2.86.8.38.45.73.93,1.09,1.39ZM-1562.21,727.55c1.01-.96,2.03-1.93,2.81-2.68-.65-.63-1.28-1.25-1.95-1.9-1.32.94-1.73,2.24-.86,4.58Z"/>
    <path class="cls-1" d="M-1586.34,764.79c.8,1.06,1.86,1.55,3.09,1.56.41,0,.82-.35,1.24-.5.24-.09.51-.1.77-.15-.08.23-.1.49-.23.68-.8,1.17-1.62,2.33-2.45,3.51-2.48-.68-4.99-3.51-5.21-6.1-.19-2.25.74-4.13,2.38-5.6,1.12-.99,2.41-1.79,3.5-2.59.94,1.52,1.81,2.93,2.73,4.41-1.83,1.5-3.79,3.11-5.81,4.76ZM-1585.13,758.12c-2.65,1.31-3.45,4.12-1.61,5.98,1.26-.94,2.52-1.89,3.73-2.8-.75-1.12-1.43-2.13-2.13-3.18Z"/>
    <path class="cls-1" d="M-1576.33,725.18c1.02-.86,1.9-1.61,2.76-2.33.81.47,1.51.91,2.24,1.3.15.08.42.06.57-.02.74-.43,1.45-.89,2.21-1.36.5.55,1,1.09,1.5,1.64.19.21.34.47.7.25.09-.05.3.03.4.11.05.04.02.29-.06.34-.78.63-1.57,1.25-2.38,1.84-.08.06-.39-.12-.53-.26-.48-.48-.93-.99-1.38-1.48-.82.23-1.05.73-1.02,1.56.06,2.3,0,4.61.02,6.91,0,.58-.18.74-.76.74-1.86,0-1.87.02-1.86-1.85,0-1.75.03-3.51.04-5.26,0-1.15-.23-1.46-1.32-1.8-.31-.1-.62-.18-1.13-.33Z"/>
    <path class="cls-1" d="M-1583.11,741.38c-.7.66-1.36,1.29-1.93,1.83-.52-.46-1-.93-1.53-1.36-1.05-.85-1.93-.64-2.55.56-1.7,3.28.55,7.07,4.24,7.15.38,0,.77,0,1.2,0-.49.79-.93,1.53-1.4,2.26-.06.1-.21.18-.32.19-1.01.09-2.02.17-2.95-.34-2.68-1.48-3.82-3.39-3.01-6.65.63-2.55,2.34-4.19,4.56-5.39q1.73-.94,2.89.63c.27.37.54.74.81,1.11Z"/>
    <path class="cls-1" d="M-1565.48,748.61c-.25.36-.37.57-.52.76-.41.51-.83,1.02-1.26,1.52-.38.45-.85.48-1.36.25-1.15-.51-1.8-1.4-1.87-2.64-.08-1.53-.11-3.06-.06-4.59.04-1.43.1-1.43-1.24-2.03-.09-.04-.16-.13-.36-.29,2.36-1.04,3.5-3.12,4.71-5.14.07.03.14.05.22.08-.06.31-.06.64-.19.91-.51,1.07-.53,2.2-.41,3.34.05.45.24.66.72.61.72-.08,1.44-.1,2.16-.17.31-.03.52.03.52.4,0,.3-.02.56-.43.6-1.02.1-2.04.25-3.07.34-.38.03-.51.19-.47.53.17,1.59.31,3.18.54,4.76.1.69,1.03,1.1,1.68.85.15-.05.32-.04.68-.09Z"/>
    <path class="cls-1" d="M-1562.64,753.81c-.09.85-.18,1.7-.28,2.56-.06.48-.14.95-.19,1.43-.08.78.04.91.84.96.33.02.66.02.99.01.36-.01.65.02.66.5.02.45-.2.57-.6.56-.24,0-.48.07-.72.09-1.32.12-1.21,0-1.2,1.43,0,.68.1,1.35.12,2.03.03.72.43,1.17,1.04,1.46.58.28.94-.11,1.33-.43.16-.13.36-.19.54-.29.05.04.1.08.15.11-.08.19-.13.41-.25.58-.62.89-1.29,1.76-1.89,2.67-.3.44-.69.41-1.1.33-1.22-.26-1.96-1.14-2.03-2.56-.08-1.44-.06-2.89-.06-4.33,0-.44-.08-.76-.49-1.04-.73-.5-.61-.66-.11-1.38.94-1.34,1.75-2.76,2.61-4.15.12-.19.21-.4.31-.59.11.02.22.05.34.07Z"/>
    <path class="cls-1" d="M-1547.82,740.05c.79.44,1.45.82,2.11,1.19-.2,1.1-.64,1.46-1.73,1.45-.61,0-1.23-.07-1.84-.02-1.06.1-1.56.69-1.56,1.74-.01,2.05,1.34,3.71,3.35,4.13.51.11.89.04,1.17-.46.1-.17.36-.25.54-.36,0,.23.1.52,0,.69-.6.99-1.24,1.96-1.89,2.92-.08.11-.34.16-.5.13-2.14-.35-3.63-1.53-4.25-3.62-.61-2.01.01-3.8,1.47-5.23.96-.95,2.09-1.72,3.14-2.57Z"/>
    <path class="cls-1" d="M-1558.75,759.8c.3-.35.47-.57.67-.76.71-.68,1.44-1.36,2.16-2.03.57-.52.82-.44,1.32.13,1.12,1.28,1.57,2.72,1.37,4.4-.08.67.03,1.36-.01,2.04-.07,1.01.24,1.54,1.4,1.86-.75.81-1.48,1.59-2.22,2.38-.43-.36-.88-.64-1.18-1.02-.25-.32-.47-.76-.48-1.15-.06-1.56-.05-3.12-.02-4.67,0-.43-.1-.71-.52-.85-.16-.06-.32-.15-.47-.24-.44-.26-.86-.52-1.37-.11-.09.07-.29.01-.64.01Z"/>
    <path class="cls-1" d="M-1544.99,744.82c.14-.16.26-.34.41-.48.78-.74,1.57-1.47,2.36-2.19.52-.47.79-.4,1.22.12.69.84.95,1.75.86,2.85-.1,1.29-.06,2.59-.07,3.88,0,.91.19,1.16,1.11,1.39.27.07.54.13.99.23-.96.91-1.81,1.73-2.7,2.57-.44-.41-.87-.7-1.17-1.1-.24-.32-.45-.76-.47-1.16-.06-1.62-.04-3.25-.05-4.87,0-.82-1.08-1.49-1.82-1.17-.18.08-.39.08-.58.12-.03-.06-.06-.13-.1-.19Z"/>
    <path class="cls-1" d="M-1542.22,736.54c.43.41.98.72,1.18,1.18.22.5.29,1.19.14,1.72-.19.63-1.16,1.08-1.65.87-.36-.15-.69-.48-.91-.8-.32-.47-.03-1.82.4-2.22.29-.26.58-.52.84-.75Z"/>
    <path class="cls-1" d="M-1558.46,754.44c.75-.68,1.47-1.34,2.08-1.89.62.45,1.3.94,2.03,1.47-.6.65-1.28,1.37-2,2.15-.74-.6-1.46-1.19-2.11-1.72Z"/>
    <path class="cls-1" d="M-1539.95,729.58c-.59-.14-1.09-.2-1.55-.38-.18-.07-.41-.46-.35-.58.09-.19.41-.4.62-.4.47.01.96.09,1.39.27.27.11.44.46.65.7-.27.14-.53.28-.76.39Z"/>
    <path class="cls-1" d="M-1539.74,731.5c-.68-.21-1.31-.38-1.91-.61-.13-.05-.29-.32-.25-.45.04-.14.29-.33.42-.31.66.1,1.32.24,1.95.44.16.05.33.37.31.55-.01.14-.32.24-.52.38Z"/>
    <path class="cls-1" d="M-1533.3,794.01c-.54.26-.91.48-1.32.61-.39.13-.8.23-1.21.22-.2,0-.48-.23-.56-.42-.06-.15.08-.48.23-.6,1.88-1.41,3.92-2.01,6.21-1.1.61.24,1.18.57,1.77.86,1.43.69,2.85,1.38,4.1,1.98-1.18.61-2.56,1.35-3.98,2.03-.96.46-1.94.94-2.96,1.22-1.48.41-2.86,0-4.1-.87-.21-.15-.34-.41-.41-.72.8.23,1.61.46,2.41.69-.93-1.24-1.16-2.47-.2-3.91ZM-1530.25,797.52c1.16-.58,2.31-1.17,3.63-1.83-1.32-.7-2.48-1.31-3.64-1.92-.05.04-.1.08-.15.12,1.25,1.18,1.05,2.37.16,3.64Z"/>
    <path class="cls-1" d="M-1530.25,797.52c.89-1.27,1.09-2.46-.16-3.64.05-.04.1-.08.15-.12"/>
  </g>
</svg>